<mxfile host="Electron" agent="Mozilla/5.0 (X11; Linux x86_64) AppleWebKit/537.36 (KHTML, like Gecko) draw.io/24.7.17 Chrome/128.0.6613.36 Electron/32.0.1 Safari/537.36" version="24.7.17">
  <diagram name="Page-1" id="ljJyESQBUWmW4l1WvCFV">
    <mxGraphModel dx="1834" dy="1243" grid="1" gridSize="10" guides="1" tooltips="1" connect="1" arrows="1" fold="1" page="0" pageScale="1" pageWidth="827" pageHeight="1169" math="0" shadow="0">
      <root>
        <mxCell id="0" />
        <mxCell id="1" parent="0" />
        <mxCell id="sQC49o2s6tgBI_NwlAGD-14" style="edgeStyle=orthogonalEdgeStyle;rounded=0;orthogonalLoop=1;jettySize=auto;html=1;entryX=0;entryY=0.5;entryDx=0;entryDy=0;" edge="1" parent="1" source="sQC49o2s6tgBI_NwlAGD-1" target="sQC49o2s6tgBI_NwlAGD-2">
          <mxGeometry relative="1" as="geometry" />
        </mxCell>
        <mxCell id="sQC49o2s6tgBI_NwlAGD-15" style="edgeStyle=orthogonalEdgeStyle;rounded=0;orthogonalLoop=1;jettySize=auto;html=1;entryX=0;entryY=0.5;entryDx=0;entryDy=0;" edge="1" parent="1" source="sQC49o2s6tgBI_NwlAGD-1" target="sQC49o2s6tgBI_NwlAGD-4">
          <mxGeometry relative="1" as="geometry">
            <mxPoint x="-10" y="380" as="targetPoint" />
          </mxGeometry>
        </mxCell>
        <mxCell id="sQC49o2s6tgBI_NwlAGD-19" style="edgeStyle=orthogonalEdgeStyle;rounded=0;orthogonalLoop=1;jettySize=auto;html=1;" edge="1" parent="1" source="sQC49o2s6tgBI_NwlAGD-1">
          <mxGeometry relative="1" as="geometry">
            <mxPoint x="-190" y="190" as="targetPoint" />
          </mxGeometry>
        </mxCell>
        <mxCell id="sQC49o2s6tgBI_NwlAGD-1" value="LEXER cc/h" style="rounded=0;whiteSpace=wrap;html=1;" vertex="1" parent="1">
          <mxGeometry x="-70" y="160" width="120" height="60" as="geometry" />
        </mxCell>
        <mxCell id="sQC49o2s6tgBI_NwlAGD-17" style="edgeStyle=orthogonalEdgeStyle;rounded=0;orthogonalLoop=1;jettySize=auto;html=1;" edge="1" parent="1" source="sQC49o2s6tgBI_NwlAGD-2">
          <mxGeometry relative="1" as="geometry">
            <mxPoint x="530" y="190" as="targetPoint" />
          </mxGeometry>
        </mxCell>
        <mxCell id="sQC49o2s6tgBI_NwlAGD-2" value="TOKEN cc/h" style="rounded=0;whiteSpace=wrap;html=1;" vertex="1" parent="1">
          <mxGeometry x="230" y="160" width="120" height="60" as="geometry" />
        </mxCell>
        <mxCell id="sQC49o2s6tgBI_NwlAGD-16" style="edgeStyle=orthogonalEdgeStyle;rounded=0;orthogonalLoop=1;jettySize=auto;html=1;entryX=0.5;entryY=1;entryDx=0;entryDy=0;" edge="1" parent="1" source="sQC49o2s6tgBI_NwlAGD-3" target="sQC49o2s6tgBI_NwlAGD-5">
          <mxGeometry relative="1" as="geometry" />
        </mxCell>
        <mxCell id="sQC49o2s6tgBI_NwlAGD-3" value="TESTS cc" style="rounded=0;whiteSpace=wrap;html=1;" vertex="1" parent="1">
          <mxGeometry x="80" y="30" width="120" height="60" as="geometry" />
        </mxCell>
        <mxCell id="sQC49o2s6tgBI_NwlAGD-4" value="MAIN cc" style="rounded=0;whiteSpace=wrap;html=1;" vertex="1" parent="1">
          <mxGeometry x="50" y="350" width="120" height="60" as="geometry" />
        </mxCell>
        <mxCell id="sQC49o2s6tgBI_NwlAGD-5" value="EXTERNAL bin" style="rounded=0;whiteSpace=wrap;html=1;" vertex="1" parent="1">
          <mxGeometry x="80" y="-90" width="120" height="60" as="geometry" />
        </mxCell>
        <mxCell id="sQC49o2s6tgBI_NwlAGD-6" value="GOOGLE TEST SUITE" style="text;html=1;align=center;verticalAlign=middle;resizable=0;points=[];autosize=1;strokeColor=none;fillColor=none;" vertex="1" parent="1">
          <mxGeometry x="210" y="-72" width="150" height="30" as="geometry" />
        </mxCell>
        <mxCell id="sQC49o2s6tgBI_NwlAGD-9" value="WRITTEN TESTS" style="text;html=1;align=center;verticalAlign=middle;resizable=0;points=[];autosize=1;strokeColor=none;fillColor=none;" vertex="1" parent="1">
          <mxGeometry x="210" y="45" width="120" height="30" as="geometry" />
        </mxCell>
        <mxCell id="sQC49o2s6tgBI_NwlAGD-12" style="edgeStyle=orthogonalEdgeStyle;rounded=0;orthogonalLoop=1;jettySize=auto;html=1;entryX=0.575;entryY=0;entryDx=0;entryDy=0;entryPerimeter=0;" edge="1" parent="1" source="sQC49o2s6tgBI_NwlAGD-3" target="sQC49o2s6tgBI_NwlAGD-1">
          <mxGeometry relative="1" as="geometry" />
        </mxCell>
        <mxCell id="sQC49o2s6tgBI_NwlAGD-18" value="&lt;div style=&quot;background-color: rgb(31, 31, 31); font-family: &amp;quot;Droid Sans Mono&amp;quot;, &amp;quot;monospace&amp;quot;, monospace; font-size: 14px; line-height: 19px; white-space: pre;&quot;&gt;&lt;div style=&quot;&quot;&gt;&lt;span style=&quot;color: rgb(166, 226, 46);&quot;&gt;lookUpToken&lt;/span&gt;&lt;/div&gt;&lt;span style=&quot;color: rgb(166, 226, 46);&quot;&gt;&lt;div style=&quot;&quot;&gt;MAP&lt;/div&gt;&lt;/span&gt;&lt;span style=&quot;color: rgb(166, 226, 46);&quot;&gt;&lt;div style=&quot;&quot;&gt;Token {Type,&lt;/div&gt;&lt;/span&gt;&lt;span style=&quot;color: rgb(166, 226, 46);&quot;&gt;&lt;div style=&quot;&quot;&gt; Liternal}&lt;/div&gt;&lt;/span&gt;&lt;/div&gt;" style="rounded=1;whiteSpace=wrap;html=1;align=center;" vertex="1" parent="1">
          <mxGeometry x="530" y="130" width="170" height="150" as="geometry" />
        </mxCell>
        <mxCell id="sQC49o2s6tgBI_NwlAGD-21" value="&lt;div style=&quot;color: rgb(221, 221, 221); background-color: rgb(31, 31, 31); font-family: &amp;quot;Droid Sans Mono&amp;quot;, &amp;quot;monospace&amp;quot;, monospace; font-size: 14px; line-height: 19px; white-space: pre;&quot;&gt;&lt;span style=&quot;color: #a6e22e;&quot;&gt;next_token&lt;/span&gt;&lt;/div&gt;&lt;div style=&quot;color: rgb(221, 221, 221); background-color: rgb(31, 31, 31); font-family: &amp;quot;Droid Sans Mono&amp;quot;, &amp;quot;monospace&amp;quot;, monospace; font-size: 14px; line-height: 19px; white-space: pre;&quot;&gt;&lt;span style=&quot;color: #a6e22e;&quot;&gt;isDigit&lt;/span&gt;&lt;/div&gt;&lt;div style=&quot;background-color: rgb(31, 31, 31); font-family: &amp;quot;Droid Sans Mono&amp;quot;, &amp;quot;monospace&amp;quot;, monospace; font-size: 14px; line-height: 19px; white-space: pre;&quot;&gt;&lt;font color=&quot;#a6e22e&quot;&gt;isLetter&lt;/font&gt;&lt;/div&gt;&lt;div style=&quot;background-color: rgb(31, 31, 31); font-family: &amp;quot;Droid Sans Mono&amp;quot;, &amp;quot;monospace&amp;quot;, monospace; font-size: 14px; line-height: 19px; white-space: pre;&quot;&gt;&lt;font color=&quot;#a6e22e&quot;&gt;getDigit&lt;/font&gt;&lt;/div&gt;&lt;div style=&quot;background-color: rgb(31, 31, 31); font-family: &amp;quot;Droid Sans Mono&amp;quot;, &amp;quot;monospace&amp;quot;, monospace; font-size: 14px; line-height: 19px; white-space: pre;&quot;&gt;&lt;font color=&quot;#a6e22e&quot;&gt;getLetter&lt;/font&gt;&lt;/div&gt;" style="rounded=1;whiteSpace=wrap;html=1;" vertex="1" parent="1">
          <mxGeometry x="-330" y="110" width="170" height="160" as="geometry" />
        </mxCell>
      </root>
    </mxGraphModel>
  </diagram>
</mxfile>
